<?xml version="1.0" standalone="no"?>
<!DOCTYPE svg PUBLIC "-//W3C//DTD SVG 20010904//EN"
 "http://www.w3.org/TR/2001/REC-SVG-20010904/DTD/svg10.dtd">
<svg version="1.0" xmlns="http://www.w3.org/2000/svg"
 width="300.000000pt" height="300.000000pt" viewBox="0 0 300.000000 300.000000"
 preserveAspectRatio="xMidYMid meet">
<metadata>
Created by potrace 1.11, written by Peter Selinger 2001-2013
</metadata>
<g transform="translate(0.000000,300.000000) scale(0.100000,-0.100000)"
fill="#000000" stroke="none">
<path d="M205 2960 c44 -45 65 -40 38 8 -14 25 -25 32 -48 32 l-29 0 39 -40z"/>
<path d="M430 2994 c0 -9 32 -33 135 -102 50 -33 99 -69 109 -81 22 -24 56
-28 56 -7 0 8 -7 21 -15 30 -8 8 -15 22 -15 30 0 9 -28 43 -62 76 l-61 60 -74
0 c-40 0 -73 -3 -73 -6z"/>
<path d="M2890 2988 c0 -7 5 -42 10 -78 6 -43 6 -68 -1 -77 -8 -9 -5 -25 11
-58 12 -25 19 -52 16 -60 -3 -9 1 -51 8 -95 11 -58 13 -127 9 -248 -6 -193 4
-260 37 -242 19 10 20 24 20 440 l0 430 -55 0 c-37 0 -55 -4 -55 -12z"/>
<path d="M2851 2824 c0 -11 3 -14 6 -6 3 7 2 16 -1 19 -3 4 -6 -2 -5 -13z"/>
<path d="M770 2736 c17 -17 11 -26 -16 -26 -32 0 -28 -15 13 -41 l31 -20 20
21 c21 23 96 37 115 22 23 -18 63 -21 119 -10 49 10 59 9 83 -6 32 -21 27 -30
-20 -28 -25 1 -35 -3 -35 -13 0 -12 -11 -14 -62 -8 -35 4 -78 7 -96 7 -20 0
-28 3 -20 8 7 4 9 8 3 9 -5 0 -22 3 -36 5 -31 5 -45 -17 -29 -47 6 -10 8 -19
4 -19 -3 0 -1 -7 6 -15 7 -8 9 -15 5 -15 -4 0 -2 -6 4 -14 11 -13 17 -12 48 0
19 8 51 13 71 11 l37 -4 -42 -1 c-39 -2 -74 -22 -38 -22 9 0 13 -5 10 -10 -4
-6 -11 -8 -16 -5 -5 4 -18 0 -28 -7 -19 -13 -18 -15 12 -30 18 -9 59 -29 92
-44 33 -15 77 -41 97 -57 36 -29 39 -29 57 -13 18 17 19 16 26 -3 6 -18 22
-26 48 -22 4 0 7 -7 7 -16 0 -13 -3 -14 -12 -5 -21 21 -25 14 -23 -33 2 -44
-7 -57 -21 -33 -5 7 -10 4 -16 -11 -4 -12 -12 -19 -18 -16 -5 3 -10 -1 -10 -9
0 -8 5 -18 11 -21 6 -4 8 -22 4 -45 -5 -32 -3 -38 13 -42 36 -10 47 16 27 65
-4 9 -3 17 2 17 10 0 12 8 16 55 1 14 6 24 12 22 5 -2 16 2 23 10 15 15 7 73
-9 73 -6 0 -7 4 -4 10 3 5 -1 23 -10 40 -9 17 -15 36 -13 42 2 6 12 -4 21 -23
9 -19 17 -28 17 -21 0 7 4 11 9 8 5 -3 7 -15 4 -26 -4 -16 21 -90 30 -90 1 0
3 11 4 25 1 14 3 31 4 38 1 6 -1 37 -5 67 -7 66 -1 56 14 -23 8 -39 16 -57 24
-54 9 3 11 -4 8 -25 -3 -17 1 -33 7 -37 14 -9 4 -41 -14 -41 -7 0 -12 -12 -12
-26 0 -15 -5 -29 -10 -33 -10 -6 -10 -105 0 -131 3 -8 8 -32 11 -53 3 -22 11
-46 18 -54 11 -13 13 -13 19 4 3 10 3 30 -2 45 -4 17 -3 28 3 30 6 2 13 24 15
48 3 24 9 53 16 64 10 20 18 74 19 138 1 19 6 26 19 25 11 -1 19 -7 19 -14 0
-7 3 -13 8 -13 12 0 31 -49 21 -56 -5 -3 -5 -13 1 -25 6 -10 8 -34 5 -53 -4
-19 -2 -36 4 -40 7 -4 7 -16 -1 -36 -5 -17 -7 -41 -4 -54 3 -13 2 -26 -1 -30
-4 -4 -9 -26 -10 -48 l-3 -41 25 23 c14 13 24 31 23 39 -2 9 3 15 10 13 8 -1
11 2 7 8 -3 5 -2 18 4 27 9 17 10 17 17 -2 4 -11 12 -23 17 -26 12 -8 -22 -61
-34 -53 -12 7 -23 -22 -14 -36 5 -8 11 -6 19 6 10 13 17 15 32 6 10 -6 14 -12
8 -12 -7 0 -14 -6 -17 -14 -5 -12 2 -14 31 -10 31 5 34 3 18 -7 -15 -9 -16
-13 -5 -20 12 -8 12 -11 -1 -18 -9 -7 -20 -6 -30 2 -12 9 -13 9 -3 -3 17 -18
54 -24 50 -7 -1 7 6 11 17 9 15 -3 18 1 13 18 -7 25 1 52 13 45 5 -3 6 -14 3
-25 -3 -11 0 -20 6 -20 6 0 11 10 11 23 0 12 7 30 14 40 13 16 14 16 19 -4 3
-11 10 -18 16 -14 7 3 11 -2 11 -15 0 -11 7 -23 15 -26 8 -4 15 -10 15 -15 0
-5 -11 -4 -25 1 -19 7 -23 6 -18 -5 3 -8 9 -15 14 -15 5 0 9 -5 9 -11 0 -6 -9
-8 -20 -4 -14 4 -22 1 -27 -12 -3 -10 -13 -26 -21 -35 -11 -13 -12 -21 -4 -31
7 -8 13 -22 15 -33 1 -10 6 -25 10 -32 5 -7 5 -22 1 -35 -7 -21 -7 -21 -15 -2
-8 19 -8 19 -15 -2 -3 -13 -10 -23 -15 -23 -13 0 -11 -34 3 -48 9 -9 8 -12 -4
-12 -9 0 -19 8 -21 18 -3 11 -5 7 -6 -10 0 -14 5 -28 11 -30 9 -3 8 -12 -5
-32 -10 -14 -22 -24 -27 -21 -6 4 -33 8 -61 10 -62 5 -79 17 -55 40 19 20 21
39 3 32 -7 -3 -19 4 -25 14 -8 12 -8 19 -2 19 5 0 10 14 10 30 0 22 -6 33 -21
38 -11 5 -20 11 -20 15 2 19 0 21 -9 7 -8 -12 -10 -10 -10 8 0 13 4 20 10 17
12 -7 62 29 53 38 -3 4 7 12 23 18 l29 12 -25 7 c-22 6 -23 8 -7 15 21 9 22
31 1 39 -10 4 -13 2 -8 -6 4 -6 3 -8 -3 -5 -6 4 -13 16 -16 27 -3 11 -1 18 4
14 5 -3 9 -1 9 3 0 16 -24 33 -47 33 -13 0 -23 5 -23 12 0 6 -3 8 -7 5 -7 -8
36 -108 51 -119 6 -4 3 -14 -7 -26 -9 -10 -14 -22 -11 -25 5 -5 -36 -27 -50
-27 -2 0 -9 32 -16 72 -10 60 -18 77 -50 109 -21 21 -50 41 -66 44 -16 3 -42
13 -59 21 -46 22 -94 36 -160 45 -33 5 -69 10 -80 13 -11 2 -30 4 -43 5 -13 0
-21 5 -18 10 8 13 -56 23 -68 11 -14 -14 -72 -12 -85 3 -13 16 -44 15 -64 -2
-11 -8 -14 -25 -12 -51 3 -34 1 -40 -23 -49 -24 -8 -25 -10 -5 -10 31 -1 37
-18 12 -32 -17 -9 -19 -13 -8 -20 12 -7 12 -9 0 -9 -7 0 -11 -6 -7 -15 3 -9 0
-15 -9 -15 -9 0 -12 -8 -9 -22 2 -13 6 -38 9 -57 2 -19 8 -37 14 -40 5 -3 13
-19 16 -34 4 -15 14 -27 22 -27 13 0 13 3 3 15 -7 8 -9 15 -5 15 4 0 2 6 -4
14 -10 12 -7 18 13 31 14 10 26 24 26 32 0 10 6 12 23 7 26 -8 37 -22 37 -48
0 -15 5 -17 33 -12 26 5 38 2 55 -16 43 -45 59 -58 74 -58 9 0 18 -6 21 -14 4
-11 16 -12 59 -4 29 5 55 13 58 16 7 10 40 11 40 2 0 -5 13 -11 29 -15 15 -3
37 -14 48 -25 13 -12 25 -15 34 -9 11 7 11 9 -3 9 -10 0 -18 4 -18 10 0 5 -3
9 -7 8 -5 -1 -24 8 -43 21 -28 18 -30 21 -10 16 63 -18 133 -44 116 -45 -12 0
-16 -5 -13 -15 4 -8 2 -17 -4 -20 -5 -4 -7 -11 -4 -16 4 -5 0 -9 -7 -9 -10 0
-9 -3 2 -10 8 -5 12 -11 10 -12 -3 -2 -17 -12 -32 -21 -16 -10 -28 -22 -28
-28 0 -22 -30 -39 -72 -41 -41 -1 -41 -1 -8 -6 29 -4 32 -6 15 -12 -17 -7 -15
-9 11 -9 17 -1 52 2 78 5 45 7 47 8 41 35 -4 19 -3 29 5 29 7 0 10 -6 7 -13
-3 -8 1 -14 9 -14 23 0 24 25 1 32 -20 7 -20 8 8 15 17 4 26 8 20 9 -20 3 21
21 47 21 15 0 30 5 33 10 9 15 25 2 19 -15 -3 -8 -3 -19 1 -26 11 -17 26 11
19 36 -4 16 -3 17 5 4 13 -19 3 -59 -14 -59 -7 0 -16 -7 -19 -17 -7 -17 26
-59 53 -68 16 -5 71 -101 71 -123 0 -7 5 -12 10 -12 6 0 10 5 10 12 0 18 88
98 108 98 10 0 28 7 40 16 22 15 22 16 5 44 -13 23 -14 32 -4 44 7 8 10 19 7
24 -6 10 35 25 44 16 3 -3 -3 -11 -13 -18 -21 -16 -23 -30 -2 -22 8 3 15 1 15
-4 0 -6 7 -10 15 -10 8 0 15 4 15 9 0 5 9 7 20 4 15 -4 20 -14 20 -39 0 -20 5
-34 13 -34 8 0 7 -4 -3 -10 -10 -6 -11 -10 -2 -10 21 0 13 -18 -10 -22 -40 -5
-28 -33 14 -33 21 0 38 4 38 9 0 4 8 5 18 1 9 -4 32 -8 50 -10 l33 -3 -41 44
c-22 24 -40 45 -40 48 0 2 10 2 23 0 12 -2 16 -2 10 2 -7 3 -13 14 -13 23 0
35 96 5 146 -45 12 -12 40 -24 64 -28 24 -4 56 -14 71 -23 30 -18 31 -17 118
15 9 3 12 1 7 -6 -5 -8 -2 -10 8 -6 9 3 16 1 16 -5 0 -6 7 -11 16 -11 24 0 11
23 -17 30 -13 3 -40 6 -59 6 -19 -1 -43 6 -53 16 -21 18 -79 32 -105 24 -11
-4 -21 2 -28 19 l-12 24 62 -6 c51 -4 68 -2 101 16 22 11 45 21 52 21 7 0 13
7 13 15 0 21 27 19 40 -2 10 -16 10 -15 5 4 -6 20 -3 21 31 16 27 -4 35 -3 30
5 -4 7 -29 12 -55 12 -26 0 -53 6 -59 12 -10 10 -15 10 -22 -2 -7 -11 -12 -12
-20 -4 -18 18 0 44 30 44 26 0 28 3 27 35 -1 19 -5 35 -10 35 -5 0 -4 7 3 15
11 14 7 19 -12 16 -16 -2 -7 15 25 52 34 40 47 46 47 22 0 -10 10 -15 33 -15
22 0 28 -3 18 -9 -8 -5 -11 -16 -7 -26 4 -11 -1 -24 -15 -36 -21 -18 -21 -19
-2 -19 28 0 33 -9 21 -36 -9 -18 -8 -28 0 -36 7 -7 12 -8 12 -2 0 6 13 9 29 6
20 -3 28 -8 24 -18 -3 -8 1 -14 11 -14 9 0 16 5 16 10 0 6 6 10 13 10 14 0 19
69 7 80 -20 18 -42 64 -32 68 18 6 14 22 -5 23 -12 0 -14 2 -5 6 10 4 8 11 -9
29 -12 13 -20 27 -16 30 3 3 1 11 -4 18 -5 6 -15 18 -22 28 -9 12 -34 18 -97
22 -47 3 -79 3 -72 0 6 -3 12 -10 12 -15 0 -12 -147 -12 -155 1 -3 6 -11 10
-16 10 -6 0 -7 -5 -3 -12 4 -7 3 -8 -5 -4 -12 8 -92 -10 -191 -40 -36 -11 -51
-23 -75 -61 -16 -26 -33 -55 -37 -65 -10 -24 -35 -23 -48 3 -18 32 -2 76 41
112 45 39 46 43 19 50 -11 3 -20 14 -20 24 0 10 -7 29 -16 41 -19 27 -10 44
20 36 28 -7 41 9 50 59 4 20 12 37 18 37 6 0 8 10 4 25 -4 14 -2 33 3 42 8 16
21 47 26 63 9 33 49 97 60 97 12 0 14 -13 11 -63 -2 -34 -7 -68 -12 -75 -4 -7
-8 -36 -9 -63 0 -28 -3 -56 -7 -61 -3 -6 -8 -27 -12 -48 -10 -56 -25 -83 -52
-98 -13 -7 -24 -16 -24 -21 0 -12 69 30 114 70 26 23 39 44 43 70 3 20 10 43
16 49 5 7 7 22 4 33 -3 13 0 20 9 20 10 0 11 6 4 25 -10 26 -4 55 11 55 5 0 9
5 9 11 0 6 -9 9 -20 6 -24 -6 -24 -8 -5 36 8 20 11 37 6 39 -5 2 -6 18 -3 37
4 31 6 32 16 13 10 -18 13 -19 30 -7 19 14 13 41 -6 29 -7 -4 -8 -2 -4 4 5 9
13 9 28 1 16 -8 22 -8 29 2 4 7 5 17 3 21 -3 4 1 5 9 2 8 -3 14 1 14 10 0 8
-6 12 -15 8 -10 -3 -13 0 -10 9 3 8 12 14 20 14 8 0 23 6 32 14 21 17 21 7 0
-14 -9 -9 -14 -19 -10 -22 3 -4 15 3 26 15 22 24 40 28 55 13 6 -6 18 -4 30 6
19 15 19 15 -7 9 -34 -8 -35 0 -6 25 28 23 58 25 58 3 0 -27 -20 -54 -35 -48
-17 7 -20 -11 -4 -22 7 -4 16 1 21 10 9 16 58 23 58 7 0 -5 -7 -14 -15 -21 -8
-7 -15 -19 -15 -27 0 -12 3 -13 14 -4 11 9 15 9 18 0 3 -9 11 -6 26 9 12 12
27 22 32 22 16 0 12 22 -7 36 -17 13 -17 15 2 29 18 14 17 15 -15 10 -28 -5
-32 -4 -17 5 25 16 21 29 -10 36 -30 8 -53 26 -53 42 0 16 30 23 50 12 10 -6
30 -10 44 -10 14 0 27 -4 30 -9 16 -25 144 -18 169 9 10 10 -2 11 -54 5 -44
-4 -69 -3 -74 4 -3 6 -16 11 -29 11 -13 0 -38 8 -57 17 -20 10 -59 17 -94 17
-33 1 -64 6 -68 11 -5 6 -5 0 -2 -13 4 -15 2 -22 -5 -20 -18 4 -21 -49 -4 -63
18 -15 18 -29 -1 -29 -8 0 -15 4 -15 9 0 5 -12 8 -27 7 -23 -3 -30 -10 -37
-40 -10 -39 -26 -49 -26 -16 0 11 5 20 10 20 6 0 10 7 10 15 0 8 -6 15 -14 15
-10 0 -12 11 -10 40 3 34 0 41 -24 52 -15 8 -28 23 -30 36 -3 18 -7 21 -16 12
-10 -7 -17 -6 -26 5 -7 8 -18 15 -25 15 -8 0 -16 6 -18 13 -4 9 -7 9 -15 -1
-5 -7 -15 -12 -23 -10 -8 2 -13 -4 -12 -12 2 -10 -5 -16 -17 -16 -11 0 -20 6
-20 13 0 6 -4 15 -10 18 -6 4 -7 -1 -4 -12 5 -17 5 -17 -9 0 -8 10 -13 26 -10
36 3 10 0 22 -6 26 -6 3 -11 3 -10 -2 5 -28 -3 -39 -28 -38 -23 0 -27 4 -25
22 3 18 0 22 -15 16 -15 -6 -16 -4 -6 8 11 13 3 15 -55 13 -66 -1 -67 -2 -70
-30 -4 -38 -45 -77 -61 -61 -10 9 -15 8 -25 -5 -7 -10 -16 -15 -19 -11 -13 13
-7 34 18 61 23 25 33 52 19 52 -4 0 -13 -8 -20 -17 -11 -15 -13 -15 -9 -2 5
12 -1 16 -26 17 -26 1 -30 -2 -26 -19 4 -13 0 -19 -11 -20 -73 -5 -102 -5
-102 3 0 4 5 8 10 8 6 0 10 5 10 11 0 8 -4 9 -13 0 -8 -6 -17 -8 -20 -4 -4 3
-7 1 -7 -5 0 -7 -5 -11 -12 -10 -6 2 -15 -8 -19 -22 -7 -24 -7 -24 -8 -2 -1
23 -15 30 -26 12 -3 -5 -6 -34 -7 -62 0 -29 -3 -57 -6 -63 -12 -18 -18 49 -8
92 10 47 -6 82 -29 63 -9 -7 -16 -6 -25 5 -7 8 -20 15 -29 15 -9 0 -27 7 -39
16 -17 12 -36 14 -75 10 -104 -13 -162 -14 -182 -3 -25 14 -148 16 -135 3z
m610 -86 c0 -5 -5 -10 -11 -10 -5 0 -7 5 -4 10 3 6 8 10 11 10 2 0 4 -4 4 -10z
m-230 -84 c0 -8 -4 -18 -10 -21 -5 -3 -10 3 -10 14 0 12 5 21 10 21 6 0 10 -6
10 -14z m-30 -21 c0 -9 -6 -12 -15 -9 -8 4 -15 10 -15 15 0 5 7 9 15 9 8 0 15
-7 15 -15z m-47 -62 c-6 -16 -6 -16 -22 15 -11 21 -11 22 7 11 11 -7 18 -19
15 -26z m46 -4 c1 -3 -6 -6 -14 -6 -17 0 -18 7 -8 33 6 16 7 16 14 -2 4 -10 8
-22 8 -25z m1170 27 c14 -17 0 -29 -23 -20 -17 7 -20 16 -9 27 10 11 19 8 32
-7z m-1085 -11 c3 -8 1 -15 -4 -15 -6 0 -10 7 -10 15 0 8 2 15 4 15 2 0 6 -7
10 -15z m-130 -41 c6 0 17 -2 24 -2 20 -3 14 -29 -8 -35 -12 -3 -20 0 -20 7 0
6 -9 17 -20 24 -11 7 -20 17 -20 23 0 8 6 7 16 -2 9 -8 22 -14 28 -15z m76 16
c0 -5 -2 -10 -4 -10 -3 0 -8 5 -11 10 -3 6 -1 10 4 10 6 0 11 -4 11 -10z
m1122 -32 c-9 -9 -15 -9 -24 0 -9 9 -7 12 12 12 19 0 21 -3 12 -12z m-1085
-20 c-3 -8 -6 -5 -6 6 -1 11 2 17 5 13 3 -3 4 -12 1 -19z m433 -22 c0 -3 -4
-8 -10 -11 -5 -3 -10 -1 -10 4 0 6 5 11 10 11 6 0 10 -2 10 -4z m-14 -63 c-1
-26 -6 -38 -15 -38 -18 0 -23 32 -8 56 18 28 24 23 23 -18z m215 -93 c-9 -22
-10 -20 -10 21 -1 25 2 49 7 53 11 12 14 -47 3 -74z m-441 66 c0 -3 -4 -8 -10
-11 -5 -3 -10 -1 -10 4 0 6 5 11 10 11 6 0 10 -2 10 -4z m234 -39 c-6 -16 -34
-12 -34 5 0 6 7 8 15 4 8 -3 15 0 15 6 0 6 2 9 5 6 3 -3 3 -12 -1 -21z m-217
-9 c-3 -8 -6 -5 -6 6 -1 11 2 17 5 13 3 -3 4 -12 1 -19z m199 -44 c-3 -9 -6
-20 -6 -25 0 -5 -4 -9 -10 -9 -11 0 -14 33 -3 43 12 13 25 7 19 -9z m190 -34
c10 0 13 -7 8 -27 -4 -23 -3 -25 6 -13 9 12 10 10 5 -10 -4 -14 -16 -34 -27
-45 l-20 -20 6 35 c8 46 8 51 2 80 -4 14 -4 19 0 13 3 -7 12 -13 20 -13z
m-171 -80 c-5 -8 -11 -8 -17 -2 -6 6 -7 16 -3 22 5 8 11 8 17 2 6 -6 7 -16 3
-22z m117 -52 c-8 -8 -9 -4 -5 13 4 13 8 18 11 10 2 -7 -1 -18 -6 -23z m-955
-67 c-10 -4 -18 -11 -17 -16 2 -14 -13 -16 -30 -5 -12 8 -12 12 5 28 16 15 24
17 40 9 18 -10 18 -11 2 -16z m262 -43 c49 -126 61 -144 125 -185 28 -18 53
-25 91 -25 69 -1 79 -7 66 -41 -6 -15 -12 -27 -14 -27 -2 0 -18 11 -36 25 -19
13 -58 29 -88 35 -29 7 -66 18 -81 26 -15 8 -33 14 -39 14 -7 0 -13 4 -13 9 0
5 -16 11 -35 13 -38 4 -45 -5 -17 -22 15 -10 15 -11 -3 -4 -62 21 -83 13 -49
-20 14 -15 13 -16 -8 -17 -22 -2 -22 -2 -1 -6 13 -3 23 -13 25 -26 2 -12 14
-27 28 -35 23 -12 23 -12 -14 -6 -44 8 -98 59 -92 87 3 12 -2 17 -19 17 -13 0
-28 6 -32 14 -4 7 -15 16 -23 20 -8 3 -4 4 9 2 21 -4 22 -2 17 22 -18 76 -17
82 17 97 17 8 28 15 22 15 -27 3 36 19 77 19 26 1 50 6 53 11 10 17 25 11 34
-12z m141 -33 c0 -8 -4 -15 -10 -15 -5 0 -10 7 -10 15 0 8 5 15 10 15 6 0 10
-7 10 -15z m425 5 c3 -5 -1 -10 -9 -10 -8 0 -18 5 -21 10 -3 6 1 10 9 10 8 0
18 -4 21 -10z m92 -12 c-3 -8 -6 -5 -6 6 -1 11 2 17 5 13 3 -3 4 -12 1 -19z
m-395 -26 c17 -14 16 -16 -14 -38 -35 -27 -38 -27 -56 -16 -10 7 -10 13 0 33
29 54 31 55 70 21z m948 -142 c0 -5 -5 -10 -11 -10 -5 0 -7 5 -4 10 3 6 8 10
11 10 2 0 4 -4 4 -10z m-65 -20 c3 -5 -1 -10 -9 -10 -9 0 -16 5 -16 10 0 6 4
10 9 10 6 0 13 -4 16 -10z m-1155 -11 c0 -6 -7 -8 -16 -5 -12 4 -15 2 -10 -9
7 -19 -1 -19 -20 -1 -21 21 -18 26 16 26 17 0 30 -5 30 -11z m1210 1 c0 -5 -2
-10 -4 -10 -3 0 -8 5 -11 10 -3 6 -1 10 4 10 6 0 11 -4 11 -10z m-74 -29 c0
-11 -5 -17 -14 -14 -7 3 -22 -3 -33 -13 -14 -12 -23 -14 -30 -7 -8 8 -5 13 10
18 12 3 21 10 21 15 0 5 10 11 23 13 12 2 22 5 22 6 1 0 1 -7 1 -18z m59 9 c3
-5 -1 -10 -10 -10 -9 0 -13 5 -10 10 3 6 8 10 10 10 2 0 7 -4 10 -10z m-1175
-20 c12 -8 11 -10 -7 -10 -13 0 -23 5 -23 10 0 13 11 13 30 0z m879 -36 c14
-13 -41 -25 -59 -14 -13 9 -13 11 0 20 13 8 47 5 59 -6z m-192 -26 c-3 -8 -6
-5 -6 6 -1 11 2 17 5 13 3 -3 4 -12 1 -19z m223 -133 c-7 -8 -17 -15 -22 -15
-6 0 -5 7 2 15 7 8 17 15 22 15 6 0 5 -7 -2 -15z m273 8 c-7 -2 -21 -2 -30 0
-10 3 -4 5 12 5 17 0 24 -2 18 -5z m-553 -23 c0 -5 -7 -10 -16 -10 -8 0 -12 5
-9 10 3 6 10 10 16 10 5 0 9 -4 9 -10z m-102 -121 c-18 -11 -23 7 -6 25 11 12
13 12 16 -1 2 -9 -2 -19 -10 -24z m-51 9 c-3 -8 -6 -5 -6 6 -1 11 2 17 5 13 3
-3 4 -12 1 -19z"/>
<path d="M0 2638 l0 -105 42 -34 c86 -70 118 -95 180 -141 100 -74 189 -130
195 -124 3 3 11 -2 18 -11 6 -8 17 -14 24 -12 7 3 -58 76 -145 164 -86 88
-176 189 -200 225 -24 36 -59 83 -79 104 l-35 40 0 -106z"/>
<path d="M1305 2690 c-3 -5 -1 -10 4 -10 6 0 11 5 11 10 0 6 -2 10 -4 10 -3 0
-8 -4 -11 -10z"/>
<path d="M1818 2673 c7 -3 16 -2 19 1 4 3 -2 6 -13 5 -11 0 -14 -3 -6 -6z"/>
<path d="M880 2520 c0 -5 5 -10 10 -10 6 0 10 5 10 10 0 6 -4 10 -10 10 -5 0
-10 -4 -10 -10z"/>
<path d="M888 2407 c3 -17 12 -42 20 -55 14 -21 16 -22 24 -7 7 11 4 24 -6 41
-18 26 -8 31 25 14 12 -7 19 -7 19 -1 0 12 -24 26 -61 34 -24 6 -25 5 -21 -26z"/>
<path d="M834 2355 c-3 -25 -4 -51 -1 -59 3 -8 -5 -24 -18 -36 -27 -26 -40
-61 -19 -53 8 3 21 0 29 -7 13 -11 18 -10 29 6 8 10 12 23 9 27 -3 5 4 11 16
14 17 4 19 9 10 24 -7 15 -6 19 6 19 18 0 19 10 3 47 -12 26 -43 63 -52 63 -3
0 -8 -20 -12 -45z"/>
<path d="M1030 2359 c0 -5 5 -7 10 -4 6 3 10 8 10 11 0 2 -4 4 -10 4 -5 0 -10
-5 -10 -11z"/>
<path d="M2198 2353 c-16 -10 -26 -25 -25 -36 1 -11 -5 -22 -13 -24 -13 -4
-13 -3 0 6 8 5 11 13 7 17 -9 9 -37 -15 -37 -31 0 -8 -6 -15 -12 -18 -7 -2
-10 -7 -7 -11 7 -8 89 44 89 56 0 4 5 8 10 8 17 0 11 -14 -16 -43 -28 -31 -25
-48 6 -29 11 7 28 12 38 12 27 0 48 44 36 78 -11 33 -39 38 -76 15z"/>
<path d="M1160 2345 c0 -8 2 -15 4 -15 2 0 6 7 10 15 3 8 1 15 -4 15 -6 0 -10
-7 -10 -15z"/>
<path d="M2300 2325 c0 -8 7 -15 15 -15 9 0 12 6 9 15 -4 8 -10 15 -15 15 -5
0 -9 -7 -9 -15z"/>
<path d="M2340 2300 c-8 -5 -11 -12 -7 -16 4 -4 15 0 24 9 18 18 8 23 -17 7z"/>
<path d="M2287 2283 c-4 -3 -7 -13 -7 -21 0 -12 3 -12 15 -2 8 7 15 16 15 21
0 11 -14 12 -23 2z"/>
<path d="M1432 2260 c0 -14 2 -19 5 -12 2 6 2 18 0 25 -3 6 -5 1 -5 -13z"/>
<path d="M2123 2225 c-19 -21 -16 -27 7 -15 11 6 20 15 20 20 0 14 -13 12 -27
-5z"/>
<path d="M2741 2183 c0 -28 -4 -59 -8 -69 -4 -11 -2 -15 7 -12 16 5 19 32 10
90 l-7 43 -2 -52z"/>
<path d="M1080 2210 c0 -5 7 -10 16 -10 8 0 12 5 9 10 -3 6 -10 10 -16 10 -5
0 -9 -4 -9 -10z"/>
<path d="M1120 2214 c1 -16 29 -60 29 -44 0 8 -6 24 -14 34 -8 11 -15 16 -15
10z"/>
<path d="M2137 2193 c-4 -3 -7 -11 -7 -17 0 -6 5 -5 12 2 6 6 9 14 7 17 -3 3
-9 2 -12 -2z"/>
<path d="M798 2173 c-25 -6 -23 -39 1 -39 11 0 17 4 14 9 -3 5 0 13 7 17 15 9
1 18 -22 13z"/>
<path d="M0 2030 c0 -57 2 -61 28 -70 15 -6 35 -15 44 -20 26 -15 58 -12 58 5
0 8 -3 15 -7 15 -14 0 -58 44 -87 88 -16 23 -30 42 -32 42 -2 0 -4 -27 -4 -60z"/>
<path d="M731 2071 c-11 -7 -7 -10 15 -13 18 -2 28 -8 26 -16 -1 -8 2 -11 8
-7 6 4 5 13 -3 25 -13 22 -25 24 -46 11z"/>
<path d="M2164 2054 c-17 -17 -43 -39 -58 -49 -20 -14 -24 -20 -14 -26 10 -7
10 -9 -2 -9 -13 0 -13 -1 0 -11 11 -8 12 -12 3 -16 -15 -6 -17 -33 -3 -33 6 0
10 3 10 8 0 4 14 13 30 20 17 8 28 18 24 23 -3 5 3 9 13 9 27 0 65 44 51 58
-9 9 -9 12 0 12 7 0 12 5 12 11 0 6 -6 9 -14 6 -9 -4 -16 1 -18 11 -3 14 -9
11 -34 -14z"/>
<path d="M960 2020 c0 -5 5 -10 10 -10 6 0 10 5 10 10 0 6 -4 10 -10 10 -5 0
-10 -4 -10 -10z"/>
<path d="M2628 2023 c-33 -5 -42 -27 -24 -61 14 -28 26 -81 31 -142 2 -19 6
-47 9 -62 2 -16 0 -28 -5 -28 -5 0 -9 -18 -9 -39 0 -22 -5 -43 -10 -46 -24
-15 6 -23 117 -34 135 -13 185 -19 231 -27 l32 -6 0 206 c0 200 -1 206 -19
197 -14 -8 -22 -7 -31 4 -7 8 -21 15 -31 15 -11 0 -19 4 -19 8 0 5 -22 9 -50
10 -46 1 -67 -10 -37 -21 9 -4 9 -7 -1 -18 -11 -12 -15 -11 -23 4 -11 18 -44
23 -53 8 -7 -11 -66 16 -66 30 0 5 -3 8 -7 8 -5 -1 -20 -4 -35 -6z m242 -33
c0 -5 -5 -10 -11 -10 -5 0 -7 5 -4 10 3 6 8 10 11 10 2 0 4 -4 4 -10z"/>
<path d="M1495 1880 c-3 -5 -1 -10 4 -10 6 0 11 5 11 10 0 6 -2 10 -4 10 -3 0
-8 -4 -11 -10z"/>
<path d="M1636 1784 c-5 -14 -4 -15 9 -4 17 14 19 20 6 20 -5 0 -12 -7 -15
-16z"/>
<path d="M0 1699 l0 -81 33 5 c17 4 102 13 187 21 85 9 200 23 255 31 55 9
115 18 134 21 19 3 30 9 25 14 -5 5 -31 4 -59 -1 -54 -10 -302 -3 -376 11 -25
5 -79 20 -120 35 -40 14 -74 25 -76 25 -2 0 -3 -37 -3 -81z"/>
<path d="M1603 1736 c4 -10 0 -13 -14 -11 -17 4 -19 2 -9 -10 21 -25 50 -19
50 10 0 16 -6 25 -16 25 -10 0 -14 -6 -11 -14z"/>
<path d="M818 1601 c-7 -12 -23 -21 -35 -21 -18 0 -21 -4 -17 -27 3 -16 9 -29
15 -31 5 -2 9 -10 9 -17 0 -7 9 -15 20 -18 23 -6 24 -3 10 23 -22 41 15 64 63
38 39 -20 91 -28 154 -21 49 4 64 10 68 24 4 11 11 19 16 19 6 0 7 -4 4 -10
-3 -5 3 -10 14 -10 16 0 21 6 21 26 0 24 -3 26 -31 20 -17 -3 -39 -6 -49 -6
-10 0 -20 -9 -23 -20 -7 -27 -67 -27 -122 0 -22 11 -50 19 -62 20 -13 0 -22 5
-20 11 4 21 -22 21 -35 0z"/>
<path d="M1541 1594 c0 -11 3 -14 6 -6 3 7 2 16 -1 19 -3 4 -6 -2 -5 -13z"/>
<path d="M1621 1577 c-6 -16 -11 -38 -10 -50 0 -15 5 -10 15 17 16 46 12 76
-5 33z"/>
<path d="M1521 1554 c0 -11 3 -14 6 -6 3 7 2 16 -1 19 -3 4 -6 -2 -5 -13z"/>
<path d="M2592 1553 c-6 -2 -9 -9 -6 -14 3 -6 0 -16 -6 -24 -7 -8 -9 -15 -5
-15 4 0 2 -7 -5 -15 -7 -8 -9 -15 -5 -15 4 0 0 -11 -9 -25 -22 -33 -21 -35 17
-35 51 0 74 10 86 36 17 38 13 63 -14 89 -24 25 -30 27 -53 18z"/>
<path d="M2410 1530 c0 -4 7 -11 16 -14 19 -7 59 -8 52 -1 -10 11 -68 23 -68
15z"/>
<path d="M1528 1513 c-4 -14 0 -24 8 -27 15 -6 16 -1 5 28 -7 19 -8 19 -13 -1z"/>
<path d="M1280 1395 c0 -9 5 -15 11 -13 6 2 11 8 11 13 0 5 -5 11 -11 13 -6 2
-11 -4 -11 -13z"/>
<path d="M2420 1370 c0 -5 5 -10 10 -10 6 0 10 5 10 10 0 6 -4 10 -10 10 -5 0
-10 -4 -10 -10z"/>
<path d="M2380 1350 c0 -5 7 -10 16 -10 8 0 12 5 9 10 -3 6 -10 10 -16 10 -5
0 -9 -4 -9 -10z"/>
<path d="M860 1279 c-24 -12 -54 -22 -63 -20 -5 1 -37 -12 -72 -29 -34 -16
-67 -30 -73 -30 -5 0 -15 -7 -23 -16 -7 -9 -22 -14 -36 -11 -20 4 -26 -2 -25
-23 0 -3 -14 -5 -31 -6 -54 -2 -86 -8 -81 -16 3 -4 -2 -8 -11 -8 -9 0 -29 -10
-45 -21 -20 -16 -36 -20 -55 -15 -17 4 -24 3 -20 -4 3 -5 -2 -10 -13 -10 -11
0 -25 -7 -32 -15 -7 -9 -19 -14 -27 -11 -7 3 -13 1 -13 -5 0 -6 -9 -8 -21 -4
-13 4 -25 2 -29 -4 -7 -13 -128 -33 -142 -25 -4 3 -17 3 -28 -1 -18 -6 -19
-20 -20 -506 l-1 -499 491 0 490 0 0 25 c0 15 5 25 13 24 6 -1 21 -1 32 0 18
2 18 3 -5 16 -23 12 -23 14 -6 21 10 4 21 2 25 -5 6 -9 15 -9 37 -1 37 15 150
14 353 0 181 -13 237 -9 276 22 24 19 25 21 8 34 -10 7 -24 14 -32 14 -23 0
-54 50 -31 50 35 0 85 101 56 114 -11 5 29 46 45 46 16 0 9 -65 -10 -94 -11
-17 -18 -33 -15 -38 11 -17 26 -6 40 29 9 21 24 47 34 58 24 27 16 85 -11 85
-10 0 -24 10 -30 23 -7 12 -17 25 -23 29 -20 13 9 43 45 46 19 1 43 7 54 12
11 5 31 11 45 13 14 2 -10 5 -52 6 -71 1 -107 9 -274 61 -17 6 -56 10 -87 10
-31 0 -58 4 -62 10 -3 5 -22 14 -42 19 -32 9 -40 8 -58 -9 -11 -10 -43 -22
-73 -26 -29 -3 -55 -11 -58 -15 -13 -21 -134 0 -134 23 0 4 11 11 26 14 l25 6
-33 23 c-18 12 -43 25 -55 29 -13 4 -23 12 -23 17 0 5 -8 9 -18 9 -10 0 -25
12 -33 28 -8 15 -20 32 -28 38 -12 9 -11 13 5 23 13 8 15 14 7 17 -7 3 -15 21
-19 39 -3 19 -14 37 -23 40 -22 7 -25 47 -7 120 8 33 17 81 20 107 2 26 8 53
11 59 14 21 13 99 -1 99 -7 0 -14 4 -16 9 -1 5 -10 5 -18 0z m25 -48 c-6 -5
-21 -11 -35 -15 -21 -5 -20 -3 5 9 35 17 42 18 30 6z m-66 -45 c-6 -6 -140
-56 -148 -55 -13 2 115 58 133 59 11 0 17 -2 15 -4z m107 -603 c12 -16 24 -41
28 -57 6 -23 10 -26 16 -16 5 8 12 11 16 7 4 -4 12 -3 18 3 17 13 37 -3 40
-33 1 -14 8 -32 15 -41 10 -12 8 -15 -11 -18 -23 -3 -23 -3 6 -29 19 -18 30
-39 31 -63 4 -43 0 -44 -31 -8 -19 21 -24 23 -24 10 0 -10 5 -18 10 -18 6 0
10 -4 10 -10 0 -5 -12 -10 -26 -10 -14 0 -23 -4 -19 -10 3 -5 1 -10 -4 -10 -6
0 -11 4 -11 10 0 5 -13 23 -30 40 -16 17 -30 38 -30 46 0 11 -6 13 -19 9 -14
-4 -23 0 -31 15 -13 24 -17 180 -6 199 12 18 31 13 52 -16z m424 -99 c0 -7
-24 -46 -40 -67 -8 -10 -26 -23 -39 -28 -13 -5 -21 -15 -18 -22 3 -8 -4 -19
-14 -26 -11 -6 -24 -23 -29 -37 -9 -24 -11 -24 -34 -8 -14 8 -37 17 -51 18
-14 2 -28 6 -31 9 -11 11 31 57 51 56 54 -3 58 0 51 32 -5 28 -4 31 15 26 12
-3 18 -3 15 0 -11 12 76 60 100 55 13 -2 24 -6 24 -8z m41 -133 c1 -9 0 -23
-1 -30 -1 -12 1 -13 13 -2 13 10 18 8 31 -10 18 -26 11 -46 -10 -28 -11 9 -14
7 -14 -15 0 -17 5 -26 16 -26 8 0 12 -5 9 -10 -4 -6 -15 -8 -25 -5 -10 3 -21
1 -25 -5 -10 -17 -25 -11 -25 9 0 26 -18 37 -26 17 -9 -24 -24 -19 -24 8 0 14
8 32 18 42 9 10 17 21 17 25 0 4 3 11 7 15 4 4 4 12 -1 18 -6 7 -1 11 15 12
16 1 24 -4 25 -15z m-114 -63 c-3 -8 -6 -5 -6 6 -1 11 2 17 5 13 3 -3 4 -12 1
-19z m333 6 c0 -2 -7 -4 -15 -4 -8 0 -15 4 -15 10 0 5 7 7 15 4 8 -4 15 -8 15
-10z m-86 -111 c-5 -17 -4 -16 9 0 15 18 16 17 22 -4 8 -24 -7 -39 -42 -39
-30 0 -38 18 -17 41 21 24 35 25 28 2z"/>
<path d="M1040 372 c0 -12 19 -26 26 -19 2 2 -2 10 -11 17 -9 8 -15 8 -15 2z"/>
<path d="M1517 1217 c-3 -9 1 -18 10 -21 23 -9 29 2 11 20 -13 14 -16 14 -21
1z"/>
<path d="M1083 1135 c-7 -7 -17 -15 -24 -17 -9 -3 -9 -9 0 -27 12 -22 13 -22
38 -5 25 16 26 16 19 -1 -5 -15 -4 -16 9 -5 18 15 20 0 4 -33 -10 -21 -10 -21
5 -3 9 11 16 14 16 8 0 -7 5 -12 10 -12 6 0 10 7 10 15 0 8 5 15 11 15 5 0 7
5 4 10 -5 8 -11 8 -20 0 -9 -8 -14 -6 -19 6 -3 9 -4 20 0 25 3 5 0 9 -7 9 -7
0 -20 6 -28 14 -13 12 -18 12 -28 1z"/>
<path d="M950 1081 c0 -5 5 -13 10 -16 6 -3 10 -2 10 4 0 5 -4 13 -10 16 -5 3
-10 2 -10 -4z"/>
<path d="M2022 1079 c2 -6 8 -10 13 -10 5 0 11 4 13 10 2 6 -4 11 -13 11 -9 0
-15 -5 -13 -11z"/>
<path d="M970 1025 c0 -32 72 -125 97 -125 7 0 13 -4 13 -10 0 -5 7 -10 16
-10 9 0 18 -9 21 -20 3 -11 16 -23 28 -26 13 -3 26 -11 28 -18 11 -28 264 1
274 30 6 17 -77 30 -127 21 -66 -12 -103 -9 -116 8 -6 8 -26 18 -45 22 -34 6
-70 36 -82 67 -4 9 -14 16 -22 16 -9 0 -13 5 -10 10 3 6 -5 14 -19 20 -14 5
-26 14 -26 20 0 5 -7 10 -15 10 -8 0 -15 -7 -15 -15z"/>
<path d="M2321 994 c0 -11 3 -14 6 -6 3 7 2 16 -1 19 -3 4 -6 -2 -5 -13z"/>
<path d="M2030 900 c0 -5 5 -10 11 -10 5 0 7 5 4 10 -3 6 -8 10 -11 10 -2 0
-4 -4 -4 -10z"/>
<path d="M2010 870 c0 -5 5 -10 11 -10 5 0 7 5 4 10 -3 6 -8 10 -11 10 -2 0
-4 -4 -4 -10z"/>
<path d="M1516 863 c-8 -8 13 -43 26 -43 6 0 19 -6 27 -13 18 -15 109 -51 162
-65 45 -12 112 -1 134 22 10 9 27 16 39 15 38 -3 46 1 46 20 0 11 5 21 11 23
6 2 7 11 3 22 -7 18 -8 18 -15 -2 -5 -13 -17 -22 -28 -22 -11 0 -22 -4 -25 -8
-5 -9 -141 -6 -157 3 -5 4 -16 1 -24 -5 -11 -9 -15 -9 -15 -1 0 6 -9 11 -19
11 -11 0 -22 4 -26 9 -3 6 -13 10 -23 9 -9 0 -38 7 -64 15 -25 9 -49 13 -52
10z"/>
<path d="M1980 853 c0 -12 -3 -29 -6 -38 -6 -15 -4 -15 15 -4 25 16 25 19 6
45 -14 19 -14 19 -15 -3z"/>
<path d="M1456 844 c-5 -12 -2 -15 10 -10 8 3 18 6 20 6 2 0 4 5 4 10 0 16
-27 11 -34 -6z"/>
<path d="M2060 571 c0 -10 67 -7 77 3 4 3 -12 6 -35 6 -23 0 -42 -4 -42 -9z"/>
<path d="M1970 556 c0 -2 7 -7 16 -10 8 -3 12 -2 9 4 -6 10 -25 14 -25 6z"/>
<path d="M1921 541 c-8 -6 -9 -11 -3 -15 6 -3 14 -1 17 5 9 14 2 20 -14 10z"/>
<path d="M1893 310 c-21 -22 -44 -40 -50 -40 -7 0 -13 -8 -13 -18 0 -10 -4
-22 -9 -27 -12 -13 -18 -49 -8 -54 14 -6 141 45 179 73 32 22 39 38 28 56 -7
12 -11 12 -25 0 -14 -11 -17 -11 -21 6 -3 11 -14 25 -24 32 -16 9 -24 5 -57
-28z"/>
<path d="M2041 294 c0 -11 3 -14 6 -6 3 7 2 16 -1 19 -3 4 -6 -2 -5 -13z"/>
<path d="M1120 70 c0 -5 5 -10 11 -10 5 0 7 5 4 10 -3 6 -8 10 -11 10 -2 0 -4
-4 -4 -10z"/>
</g>
</svg>
